<svg xmlns="http://www.w3.org/2000/svg" width="700" height="280" viewBox="0 0 700 280"><rect width="100%" height="100%" fill="#fff"/><rect width="200" height="200" x="40" y="40" fill="none" stroke="#000" stroke-dasharray="8 4" stroke-width="2" rx="8"/><text x="140" y="70" fill="#000" font-family="monospace" font-size="16" text-anchor="middle">CPU (Host)</text><rect width="150" height="40" x="65" y="90" fill="none" stroke="#000" stroke-width="1.5" rx="4"/><text x="140" y="115" fill="#000" font-family="monospace" font-size="13" text-anchor="middle">tensor_cpu</text><rect width="150" height="40" x="65" y="175" fill="none" stroke="#000" stroke-width="1.5" rx="4"/><text x="140" y="200" fill="#000" font-family="monospace" font-size="13" text-anchor="middle">resultado.cpu()</text><rect width="200" height="200" x="460" y="40" fill="none" stroke="#000" stroke-width="2" rx="8"/><text x="560" y="70" fill="#000" font-family="monospace" font-size="16" text-anchor="middle">GPU (Device)</text><rect width="150" height="40" x="485" y="90" fill="none" stroke="#000" stroke-width="1.5" rx="4"/><text x="560" y="115" fill="#000" font-family="monospace" font-size="13" text-anchor="middle">tensor_gpu</text><rect width="150" height="40" x="485" y="175" fill="none" stroke="#000" stroke-width="1.5" rx="4"/><text x="560" y="200" fill="#000" font-family="monospace" font-size="13" text-anchor="middle">resultado_gpu</text><line x1="215" x2="485" y1="110" y2="110" stroke="#000" stroke-width="1.5"/><polygon fill="#000" points="485 110 475 105 475 115"/><text x="350" y="100" fill="#000" font-family="monospace" font-size="12" text-anchor="middle">.to(&apos;cuda&apos;)</text><line x1="560" x2="560" y1="130" y2="175" stroke="#000" stroke-width="1.5"/><polygon fill="#000" points="560 175 555 165 565 165"/><text x="610" y="155" fill="#000" font-family="monospace" font-size="11" text-anchor="start">* 2</text><line x1="485" x2="215" y1="195" y2="195" stroke="#000" stroke-width="1.5"/><polygon fill="#000" points="215 195 225 190 225 200"/><text x="350" y="185" fill="#000" font-family="monospace" font-size="12" text-anchor="middle">.to(&apos;cpu&apos;)</text><circle cx="300" cy="110" r="12" fill="#000"/><text x="300" y="115" fill="#fff" font-family="monospace" font-size="11" text-anchor="middle">1</text><circle cx="590" cy="152" r="12" fill="#000"/><text x="590" y="157" fill="#fff" font-family="monospace" font-size="11" text-anchor="middle">2</text><circle cx="300" cy="195" r="12" fill="#000"/><text x="300" y="200" fill="#fff" font-family="monospace" font-size="11" text-anchor="middle">3</text></svg>