<svg xmlns="http://www.w3.org/2000/svg" width="500" height="320" viewBox="0 0 500 320"><rect width="100%" height="100%" fill="#fff"/><rect width="180" height="180" x="120" y="80" fill="none" stroke="#000" stroke-width="2"/><polygon fill="none" stroke="#000" stroke-width="2" points="120 80 140 60 320 60 300 80"/><polygon fill="none" stroke="#000" stroke-width="2" points="300 80 320 60 320 240 300 260"/><line x1="120" x2="300" y1="140" y2="140" stroke="#000" stroke-dasharray="4 4" stroke-width=".5"/><line x1="120" x2="300" y1="200" y2="200" stroke="#000" stroke-dasharray="4 4" stroke-width=".5"/><line x1="180" x2="180" y1="80" y2="260" stroke="#000" stroke-dasharray="4 4" stroke-width=".5"/><line x1="240" x2="240" y1="80" y2="260" stroke="#000" stroke-dasharray="4 4" stroke-width=".5"/><line x1="90" x2="90" y1="80" y2="260" stroke="#000" stroke-width="1"/><line x1="85" x2="95" y1="80" y2="80" stroke="#000" stroke-width="1"/><line x1="85" x2="95" y1="260" y2="260" stroke="#000" stroke-width="1"/><text x="80" y="175" fill="#000" font-family="monospace" font-size="14" text-anchor="end">28</text><text x="80" y="195" fill="#000" font-family="monospace" font-size="11" text-anchor="end">(alto)</text><line x1="120" x2="300" y1="280" y2="280" stroke="#000" stroke-width="1"/><line x1="120" x2="120" y1="275" y2="285" stroke="#000" stroke-width="1"/><line x1="300" x2="300" y1="275" y2="285" stroke="#000" stroke-width="1"/><text x="210" y="300" fill="#000" font-family="monospace" font-size="14" text-anchor="middle">28 (ancho)</text><line x1="310" x2="330" y1="50" y2="50" stroke="#000" stroke-width="1"/><line x1="300" x2="300" y1="75" y2="50" stroke="#000" stroke-dasharray="3 3" stroke-width=".8"/><line x1="320" x2="320" y1="55" y2="50" stroke="#000" stroke-dasharray="3 3" stroke-width=".8"/><text x="350" y="55" fill="#000" font-family="monospace" font-size="14" text-anchor="start">1 (canal)</text><text x="350" y="72" fill="#000" font-family="monospace" font-size="11" text-anchor="start">escala de grises</text><rect width="60" height="60" x="180" y="140" fill="#000" fill-opacity=".3" stroke="#000" stroke-width="1"/><text x="210" y="175" fill="#000" font-family="monospace" font-size="10" text-anchor="middle">pixel</text><text x="210" y="188" fill="#000" font-family="monospace" font-size="10" text-anchor="middle">[0-255]</text><text x="250" y="310" fill="#000" font-family="monospace" font-size="13" text-anchor="middle">[1, 28, 28] = [C, H, W]</text></svg>