<svg xmlns="http://www.w3.org/2000/svg" width="750" height="300" viewBox="0 0 750 300"><rect width="100%" height="100%" fill="#fff"/><rect width="100" height="180" x="30" y="60" fill="none" stroke="#000" stroke-width="2" rx="6"/><text x="80" y="145" fill="#000" font-family="monospace" font-size="13" text-anchor="middle">Entrada</text><text x="80" y="165" fill="#000" font-family="monospace" font-size="16" font-weight="bold" text-anchor="middle">784</text><text x="80" y="185" fill="#000" font-family="monospace" font-size="10" text-anchor="middle">(28x28)</text><circle cx="80" cy="80" r="3" fill="#000"/><circle cx="80" cy="92" r="3" fill="#000"/><circle cx="80" cy="104" r="3" fill="#000"/><circle cx="80" cy="112" r="2" fill="#000"/><circle cx="80" cy="118" r="2" fill="#000"/><circle cx="80" cy="124" r="2" fill="#000"/><line x1="130" x2="195" y1="150" y2="150" stroke="#000" stroke-width="1.5"/><polygon fill="#000" points="195 150 185 145 185 155"/><text x="162" y="140" fill="#000" font-family="monospace" font-size="10" text-anchor="middle">Flatten</text><rect width="100" height="220" x="200" y="40" fill="none" stroke="#000" stroke-width="2" rx="6"/><text x="250" y="145" fill="#000" font-family="monospace" font-size="13" text-anchor="middle">Oculta 1</text><text x="250" y="165" fill="#000" font-family="monospace" font-size="16" font-weight="bold" text-anchor="middle">256</text><circle cx="250" cy="60" r="3" fill="#000"/><circle cx="250" cy="72" r="3" fill="#000"/><circle cx="250" cy="84" r="3" fill="#000"/><circle cx="250" cy="96" r="3" fill="#000"/><circle cx="250" cy="108" r="2" fill="#000"/><circle cx="250" cy="116" r="2" fill="#000"/><line x1="300" x2="365" y1="150" y2="150" stroke="#000" stroke-width="1.5"/><polygon fill="#000" points="365 150 355 145 355 155"/><text x="332" y="140" fill="#000" font-family="monospace" font-size="10" text-anchor="middle">ReLU</text><rect width="100" height="180" x="370" y="60" fill="none" stroke="#000" stroke-width="2" rx="6"/><text x="420" y="145" fill="#000" font-family="monospace" font-size="13" text-anchor="middle">Oculta 2</text><text x="420" y="165" fill="#000" font-family="monospace" font-size="16" font-weight="bold" text-anchor="middle">128</text><circle cx="420" cy="80" r="3" fill="#000"/><circle cx="420" cy="92" r="3" fill="#000"/><circle cx="420" cy="104" r="3" fill="#000"/><circle cx="420" cy="116" r="2" fill="#000"/><circle cx="420" cy="124" r="2" fill="#000"/><line x1="470" x2="535" y1="150" y2="150" stroke="#000" stroke-width="1.5"/><polygon fill="#000" points="535 150 525 145 525 155"/><text x="502" y="140" fill="#000" font-family="monospace" font-size="10" text-anchor="middle">ReLU</text><rect width="100" height="120" x="540" y="90" fill="none" stroke="#000" stroke-width="2" rx="6"/><text x="590" y="145" fill="#000" font-family="monospace" font-size="13" text-anchor="middle">Salida</text><text x="590" y="165" fill="#000" font-family="monospace" font-size="16" font-weight="bold" text-anchor="middle">10</text><circle cx="590" cy="105" r="3" fill="#000"/><circle cx="590" cy="117" r="3" fill="#000"/><circle cx="590" cy="129" r="3" fill="#000"/><line x1="640" x2="700" y1="150" y2="150" stroke="#000" stroke-width="1.5"/><polygon fill="#000" points="700 150 690 145 690 155"/><text x="710" y="120" fill="#000" font-family="monospace" font-size="10" text-anchor="start">0</text><text x="710" y="135" fill="#000" font-family="monospace" font-size="10" text-anchor="start">1</text><text x="710" y="150" fill="#000" font-family="monospace" font-size="10" text-anchor="start">...</text><text x="710" y="165" fill="#000" font-family="monospace" font-size="10" text-anchor="start">9</text><line x1="130" x2="200" y1="100" y2="80" stroke="#000" stroke-width=".3" opacity=".4"/><line x1="130" x2="200" y1="100" y2="150" stroke="#000" stroke-width=".3" opacity=".4"/><line x1="130" x2="200" y1="200" y2="200" stroke="#000" stroke-width=".3" opacity=".4"/><line x1="130" x2="200" y1="200" y2="100" stroke="#000" stroke-width=".3" opacity=".4"/><line x1="300" x2="370" y1="80" y2="100" stroke="#000" stroke-width=".3" opacity=".4"/><line x1="300" x2="370" y1="150" y2="150" stroke="#000" stroke-width=".3" opacity=".4"/><line x1="300" x2="370" y1="200" y2="180" stroke="#000" stroke-width=".3" opacity=".4"/><line x1="470" x2="540" y1="100" y2="130" stroke="#000" stroke-width=".3" opacity=".4"/><line x1="470" x2="540" y1="150" y2="150" stroke="#000" stroke-width=".3" opacity=".4"/><line x1="470" x2="540" y1="200" y2="170" stroke="#000" stroke-width=".3" opacity=".4"/><text x="165" y="280" fill="#000" font-family="monospace" font-size="10" text-anchor="middle">784x256</text><text x="165" y="293" fill="#000" font-family="monospace" font-size="10" text-anchor="middle">= 200,704</text><text x="335" y="280" fill="#000" font-family="monospace" font-size="10" text-anchor="middle">256x128</text><text x="335" y="293" fill="#000" font-family="monospace" font-size="10" text-anchor="middle">= 32,768</text><text x="505" y="280" fill="#000" font-family="monospace" font-size="10" text-anchor="middle">128x10</text><text x="505" y="293" fill="#000" font-family="monospace" font-size="10" text-anchor="middle">= 1,280</text></svg>