<svg xmlns="http://www.w3.org/2000/svg" width="700" height="500" viewBox="0 0 700 500"><rect width="100%" height="100%" fill="#fff"/><rect width="160" height="50" x="50" y="30" fill="none" stroke="#000" stroke-width="2" rx="25"/><text x="130" y="60" fill="#000" font-family="monospace" font-size="12" text-anchor="middle">Activar GPU</text><line x1="130" x2="130" y1="80" y2="110" stroke="#000" stroke-width="1.5"/><polygon fill="#000" points="130 110 125 100 135 100"/><rect width="160" height="50" x="50" y="110" fill="none" stroke="#000" stroke-width="1.5" rx="6"/><text x="130" y="135" fill="#000" font-family="monospace" font-size="11" text-anchor="middle">torch.cuda</text><text x="130" y="150" fill="#000" font-family="monospace" font-size="11" text-anchor="middle">.is_available()</text><line x1="210" x2="270" y1="135" y2="135" stroke="#000" stroke-width="1.5"/><polygon fill="#000" points="270 135 260 130 260 140"/><rect width="160" height="50" x="270" y="110" fill="none" stroke="#000" stroke-width="1.5" rx="6"/><text x="350" y="135" fill="#000" font-family="monospace" font-size="11" text-anchor="middle">Cargar MNIST</text><text x="350" y="150" fill="#000" font-family="monospace" font-size="10" text-anchor="middle">60k train / 10k test</text><line x1="430" x2="490" y1="135" y2="135" stroke="#000" stroke-width="1.5"/><polygon fill="#000" points="490 135 480 130 480 140"/><rect width="160" height="50" x="490" y="110" fill="none" stroke="#000" stroke-width="1.5" rx="6"/><text x="570" y="135" fill="#000" font-family="monospace" font-size="11" text-anchor="middle">RedNeuronal()</text><text x="570" y="150" fill="#000" font-family="monospace" font-size="10" text-anchor="middle">784-256-128-10</text><line x1="570" x2="570" y1="160" y2="200" stroke="#000" stroke-width="1.5"/><polygon fill="#000" points="570 200 565 190 575 190"/><rect width="160" height="50" x="490" y="200" fill="none" stroke="#000" stroke-width="1.5" rx="6"/><text x="570" y="225" fill="#000" font-family="monospace" font-size="11" text-anchor="middle">modelo.to(&apos;cuda&apos;)</text><text x="570" y="240" fill="#000" font-family="monospace" font-size="10" text-anchor="middle">datos.to(&apos;cuda&apos;)</text><line x1="490" x2="430" y1="225" y2="225" stroke="#000" stroke-width="1.5"/><polygon fill="#000" points="430 225 440 220 440 230"/><rect width="160" height="50" x="270" y="200" fill="none" stroke="#000" stroke-width="2" rx="6"/><text x="350" y="220" fill="#000" font-family="monospace" font-size="11" text-anchor="middle">Entrenar CPU</text><text x="350" y="237" fill="#000" font-family="monospace" font-size="10" text-anchor="middle">3 epocas</text><line x1="350" x2="350" y1="250" y2="280" stroke="#000" stroke-width="1.5"/><polygon fill="#000" points="350 280 345 270 355 270"/><rect width="160" height="50" x="270" y="280" fill="none" stroke="#000" stroke-width="2" rx="6"/><text x="350" y="300" fill="#000" font-family="monospace" font-size="11" text-anchor="middle">Entrenar GPU</text><text x="350" y="317" fill="#000" font-family="monospace" font-size="10" text-anchor="middle">3 epocas</text><line x1="350" x2="350" y1="330" y2="360" stroke="#000" stroke-width="1.5"/><polygon fill="#000" points="350 360 345 350 355 350"/><rect width="160" height="50" x="270" y="360" fill="none" stroke="#000" stroke-width="1.5" rx="6"/><text x="350" y="380" fill="#000" font-family="monospace" font-size="11" text-anchor="middle">Comparar tiempos</text><text x="350" y="397" fill="#000" font-family="monospace" font-size="10" text-anchor="middle">GPU ~Xx mas rapida</text><line x1="430" x2="490" y1="385" y2="385" stroke="#000" stroke-width="1.5"/><polygon fill="#000" points="490 385 480 380 480 390"/><rect width="160" height="50" x="490" y="360" fill="none" stroke="#000" stroke-width="1.5" rx="6"/><text x="570" y="380" fill="#000" font-family="monospace" font-size="11" text-anchor="middle">Evaluar precision</text><text x="570" y="397" fill="#000" font-family="monospace" font-size="10" text-anchor="middle">&gt;95% en test</text><line x1="570" x2="570" y1="410" y2="440" stroke="#000" stroke-width="1.5"/><polygon fill="#000" points="570 440 565 430 575 430"/><rect width="160" height="50" x="490" y="440" fill="none" stroke="#000" stroke-width="1.5" rx="6"/><text x="570" y="460" fill="#000" font-family="monospace" font-size="11" text-anchor="middle">Probar digito</text><text x="570" y="477" fill="#000" font-family="monospace" font-size="10" text-anchor="middle">propio + Softmax</text><rect width="180" height="80" x="50" y="280" fill="none" stroke="#000" stroke-dasharray="5 3" stroke-width="1" rx="6"/><text x="140" y="300" fill="#000" font-family="monospace" font-size="10" text-anchor="middle">Ciclo por epoca:</text><text x="140" y="315" fill="#000" font-family="monospace" font-size="10" text-anchor="middle">1. Forward pass</text><text x="140" y="330" fill="#000" font-family="monospace" font-size="10" text-anchor="middle">2. Calcular loss</text><text x="140" y="345" fill="#000" font-family="monospace" font-size="10" text-anchor="middle">3. Backward + step</text><line x1="230" x2="270" y1="305" y2="305" stroke="#000" stroke-dasharray="3 3" stroke-width="1"/></svg>